<?xml version="1.0" encoding="UTF-8"?>
<svg width="225px" height="18px" viewBox="0 0 225 18" version="1.1" xmlns="http://www.w3.org/2000/svg" xmlns:xlink="http://www.w3.org/1999/xlink">
    <!-- Generator: Sketch 62 (91390) - https://sketch.com -->
    <title>Combined Shape</title>
    <desc>Created with Sketch.</desc>
    <g id="Page-1" stroke="none" stroke-width="1" fill="none" fill-rule="evenodd">
        <g id="site-1" transform="translate(-101.000000, -42.000000)">
            <rect id="Rectangle" fill="#FBC843" x="0" y="0" width="1600" height="740"></rect>
            <path d="M291.229757,46.6322581 C295.10808,46.6322581 297.819315,49.5045161 297.819315,53.316129 C297.819315,57.1277419 295.10808,60 291.229757,60 C287.351434,60 284.640199,57.1277419 284.640199,53.316129 C284.640199,49.5045161 287.351434,46.6322581 291.229757,46.6322581 Z M119.894721,42 C120.071301,42 120.236251,42.1426447 120.260922,42.3173404 L120.260922,42.3173404 L121.174136,48.8096114 C121.198808,48.9843071 121.359528,49.1597073 121.531879,49.1995069 L121.531879,49.1995069 L123.876416,49.7447266 C124.048414,49.7848785 124.272576,49.6996439 124.374083,49.5552381 L124.374083,49.5552381 L128.177788,44.1692561 C128.279648,44.0252025 128.490769,43.9748366 128.646202,44.0576058 L128.646202,44.0576058 L132.803068,46.2634916 C132.958853,46.3462607 133.039213,46.5501898 132.981058,46.7167847 L132.981058,46.7167847 L128.468212,59.6981568 C128.410409,59.8647517 128.21832,60 128.042093,60 L128.042093,60 L105.970596,60 C105.794015,60 105.602279,59.8647517 105.543772,59.6981568 L105.543772,59.6981568 L101.018942,46.7167847 C100.960787,46.5501898 101.041147,46.3462607 101.196932,46.2634916 L101.196932,46.2634916 L105.335118,44.0695809 C105.491256,43.9868117 105.701672,44.0371776 105.803532,44.1812312 L105.803532,44.1812312 L109.606884,49.5654522 C109.709096,49.7095057 109.932906,49.7943881 110.104552,49.7545885 L110.104552,49.7545885 L112.456138,49.2058467 C112.627784,49.1656948 112.788856,48.9899425 112.814233,48.8152467 L112.814233,48.8152467 L113.750709,42.3173404 C113.776085,42.1426447 113.941035,42 114.117615,42 L114.117615,42 Z M157.759782,46.9032258 L157.759782,48.9264516 L150.972717,48.9264516 L150.972717,52.2141935 L157.454543,52.2141935 L157.454543,54.2374194 L150.972717,54.2374194 L150.972717,57.7058065 L157.759782,57.7058065 L157.759782,59.7290323 L148.800138,59.7290323 L148.800138,46.9032258 L157.759782,46.9032258 Z M178.022225,46.9032258 L178.022225,57.7058065 L183.929485,57.7058065 L183.929485,59.7290323 L175.849646,59.7290323 L175.849646,46.9032258 L178.022225,46.9032258 Z M210.224875,46.9032258 L210.224875,48.9264516 L203.43781,48.9264516 L203.43781,52.2141935 L209.919636,52.2141935 L209.919636,54.2374194 L203.43781,54.2374194 L203.43781,57.7058065 L210.224875,57.7058065 L210.224875,59.7290323 L201.265231,59.7290323 L201.265231,46.9032258 L210.224875,46.9032258 Z M234.060402,46.9032258 L239.016037,59.7290323 L236.645951,59.7290323 L235.730235,57.2541935 L230.020482,57.2541935 L229.104767,59.7290323 L226.806502,59.7290323 L231.744182,46.9032258 L234.060402,46.9032258 Z M258.362765,46.9032258 L264.557308,56.1341935 L264.557308,46.9032258 L266.693977,46.9032258 L266.693977,59.7290323 L264.467532,59.7290323 L258.290944,50.516129 L258.290944,59.7290323 L256.154275,59.7290323 L256.154275,46.9032258 L258.362765,46.9032258 Z M321.367559,46.9032258 C324.186525,46.9032258 325.569075,48.5470968 325.569075,50.7870968 C325.569075,52.4851613 324.761091,53.8580645 323.073303,54.4 L326,59.7290323 L323.450362,59.7290323 L320.864813,54.6709677 L317.938116,54.6709677 L317.938116,59.7290323 L315.765537,59.7290323 L315.765537,46.9032258 L321.367559,46.9032258 Z M291.229757,48.7277419 C288.733984,48.7277419 286.938464,50.5522581 286.938464,53.316129 C286.938464,56.08 288.733984,57.9045161 291.229757,57.9045161 C293.725529,57.9045161 295.521049,56.08 295.521049,53.316129 C295.521049,50.5522581 293.725529,48.7277419 291.229757,48.7277419 Z M232.893314,49.6129032 L232.857404,49.6129032 L230.73869,55.2670968 L235.012028,55.2670968 L232.893314,49.6129032 Z M321.385514,48.9264516 L317.938116,48.9264516 L317.938116,52.6477419 L321.385514,52.6477419 C322.732154,52.6477419 323.378541,51.8890323 323.378541,50.7870968 C323.378541,49.6851613 322.732154,48.9264516 321.385514,48.9264516 Z" id="Combined-Shape" fill="#FFFFFF"></path>
        </g>
    </g>
</svg>