<?xml version="1.0" encoding="UTF-8"?>
<svg width="54px" height="22px" viewBox="0 0 54 22" version="1.1" xmlns="http://www.w3.org/2000/svg" xmlns:xlink="http://www.w3.org/1999/xlink">
    <!-- Generator: Sketch 62 (91390) - https://sketch.com -->
    <title>Group 12</title>
    <desc>Created with Sketch.</desc>
    <g id="Page-1" stroke="none" stroke-width="1" fill="none" fill-rule="evenodd">
        <g id="site-1" transform="translate(-231.000000, -1415.000000)">
            <rect id="Rectangle" fill="#FBC843" x="101" y="1078" width="524" height="661"></rect>
            <g id="Group-12" transform="translate(229.500158, 1415.000000)">
                <path d="M20.999842,4 L20.999842,21.5 L7.99984202,21.5 L7.99984202,4 C7.99984202,3.03350169 8.39159287,2.15850169 9.02496829,1.52512627 C9.65834371,0.891750844 10.5333437,0.5 11.499842,0.5 L17.499842,0.5 C18.4663403,0.5 19.3413403,0.891750844 19.9747158,1.52512627 C20.6080912,2.15850169 20.999842,3.03350169 20.999842,4 Z" id="Rectangle" stroke="#AD810F"></path>
                <path d="M14.499842,2 L17.499842,2 C19.1566963,2 20.499842,3.34314575 20.499842,5 L20.499842,21 L20.499842,21 L11.499842,21 L11.499842,5 C11.499842,3.34314575 12.8429878,2 14.499842,2 Z" id="Rectangle" fill="#E1A817"></path>
                <rect id="Rectangle" stroke="#AD810F" fill="#F7BD28" x="10.499842" y="3" width="8" height="4" rx="1"></rect>
                <rect id="Rectangle" fill="#AD810F" x="4.49984202" y="21" width="20" height="1" rx="0.5"></rect>
                <path d="M3.5,5.46408464 C1.5,8.13075131 1.5,10.4640846 3.5,12.4640846 C5.5,14.4640846 6.00285855,16.642439 5.00857565,18.9991476" id="Path" stroke="#AD810F" stroke-linecap="round" stroke-linejoin="round" transform="translate(3.751909, 12.231616) rotate(12.000000) translate(-3.751909, -12.231616) "></path>
                <text id="MPG" font-family="Helvetica" font-size="16" font-weight="normal" fill="#1B1E28">
                    <tspan x="34.499842" y="17">MPG</tspan>
                </text>
            </g>
        </g>
    </g>
</svg>